<?xml version="1.0" encoding="utf-8"?>
<!-- Generator: Adobe Illustrator 24.1.0, SVG Export Plug-In . SVG Version: 6.00 Build 0)  -->
<svg version="1.1" id="Layer_1" xmlns="http://www.w3.org/2000/svg" xmlns:xlink="http://www.w3.org/1999/xlink" x="0px" y="0px"
	 viewBox="0 0 720 432" style="enable-background:new 0 0 720 432;" xml:space="preserve">
<style type="text/css">
	.st0{fill:#003D5B;}
	.st1{fill:#EDAE49;}
</style>
<g>
	<path class="st0" d="M140,267c-18.1,0-31.3-35.2-31.3-50.7c0-17.2,12.4-27.8,31.7-27.8c18.1,0,30.7,10.4,30.7,25.9
		C171,231.9,158.5,267,140,267z M138.7,196.8c-11,0-18.3,6.8-18.3,17.6c0,12,7.7,18.1,21.1,18.1c11.5,0,17.8-6,17.8-16.2
		C159.2,203.5,152.1,196.8,138.7,196.8z"/>
	<path class="st1" d="M283.8,266.4c-5,0-8.6-3.4-8.6-9.6V223c0-16.1-6-22.4-16.5-22.4c-12.6,0-17.9,6.5-17.9,21.9v43.9h-4.4
		c-6.3,0-8.7-3.4-8.7-9.6V223c0-13.9-6.2-22.4-17.2-22.4c-11.3,0-17.2,6.7-17.2,22.4v43.4H189c-5.4,0-9-3.2-9-9.6v-35.6
		c0-17.6,11.2-33,31.3-33c11.3,0,19.1,5,23.8,13.9c5-8.3,14.1-13.9,24.1-13.9c19.1,0,29.3,11.5,29.3,34.3v43.9H283.8z"/>
	<path class="st1" d="M377.6,189.3c5,0,8.6,3.4,8.6,9.6v33.8c0,16.1,6,22.4,16.5,22.4c12.6,0,17.9-6.5,17.9-21.9v-43.9h4.4
		c6.3,0,8.7,3.4,8.7,9.6v33.8c0,13.9,6.2,22.4,17.2,22.4c11.3,0,17.2-6.7,17.2-22.4v-43.4h4.2c5.4,0,9,3.2,9,9.6v35.6
		c0,17.6-11.2,33-31.3,33c-11.3,0-19.1-5-23.8-13.9c-5,8.3-14.1,13.9-24.1,13.9c-19.1,0-29.3-11.5-29.3-34.3v-43.9L377.6,189.3
		L377.6,189.3z"/>
	<path class="st1" d="M330.8,234h-18.9c1.3,12.8,10.2,21.8,24.5,21.8c11.8,0,18.9-3.7,23.2-7.9h0.7v5.7c0,8-8.6,14.2-25.8,14.2
		c-21.1,0-36-16.2-36-38.3c0-24.8,15.5-41.3,35.8-41.3c14.9,0,29,11.3,29,26.7C363.4,228.4,357.1,234,330.8,234z M333,200.1
		c-12.6,0-20.6,10.6-21.1,20.5l-0.1,3.2l17.3-0.3c18.5-0.3,21.7-2,21.7-7.7C350.8,207.4,345,200.1,333,200.1z"/>
	<path class="st1" d="M520.8,267.9c-15.6,0-29.3-9-29.3-22.7c0-16.5,12.8-25.5,35.7-25.5h10.3v-3.6c0-11.2-5.6-15.8-18.1-15.8
		c-11.5,0-19.9,4.3-24.4,10.5h-0.7v-6.3c0-7,9.2-16.2,26.4-16.2c19.5,0,29.8,10.2,29.8,28.8v24.1
		C550.6,256.7,542.3,267.9,520.8,267.9z M537.7,230.6h-10.5c-15.3,0-22.4,4.7-22.4,13.2c0,6.7,6.6,12,16.5,12
		c11.6,0,16.3-4.6,16.3-15.6L537.7,230.6L537.7,230.6z"/>
	<path class="st1" d="M607.3,205.9c-2.4-2.2-6.6-3.9-11.8-3.9c-10.2,0-14.1,5-14.1,21.4v43h-5.6c-4.7,0-7.5-3.7-7.5-8.7v-35.3
		c0-21.2,10.3-32.5,25.2-32.5c10.5,0,14.3,4.6,14.3,9.8v6.3L607.3,205.9L607.3,205.9z"/>
	<path class="st1" d="M650.1,267.9c-19.1,0-35.1-17.3-35.1-38.7c0-26.2,12.3-40.9,33.6-40.9c9.3,0,17.8,4.3,23.1,14.8v-39.9h3.4
		c6.5,0,9.8,3.4,9.8,10.6v52C684.8,255.3,674.1,267.9,650.1,267.9z M649,200.5c-13.3,0-20.8,10.2-20.8,27.5
		c0,15.3,9.5,27.7,23.1,27.7c13.9,0,20.2-7.5,20.2-26.2C671.5,215.5,667.3,200.5,649,200.5z"/>
	<g>
		<path class="st1" d="M95.1,266.6c-6.8,0-9.5-2.8-9.5-8.5l0.2-36c0.1-15.2-6.3-21-18.1-21c-8.8-0.1-19,7.1-19.1,21.5l-0.3,43.7
			h-3.7c-6.4,0-9.1-2.8-9.1-8.5l0.6-94.1h3.8c5.8,0,9.2,2.6,9.2,9.7L48.9,202c5.6-10.2,13.6-13.3,20.6-13.2
			c18.1,0.1,29.3,10.1,29.1,32.9l-0.3,44.8L95.1,266.6z"/>
	</g>
</g>
</svg>
